<svg width="23" height="21" viewBox="0 0 23 21" fill="none" xmlns="http://www.w3.org/2000/svg">
<path fill-rule="evenodd" clip-rule="evenodd" d="M6.50182 0C7.35567 0 8.20116 0.168228 8.98997 0.495075C9.77872 0.821892 10.4955 1.30106 11.0991 1.90488L11.4518 2.25761L11.8046 1.90488C12.4081 1.30106 13.1249 0.821892 13.9137 0.495075C14.7025 0.168228 15.548 0 16.4018 0C17.2557 0 18.1012 0.168229 18.89 0.495075C19.6786 0.821861 20.3952 1.30081 20.9988 1.90455C21.6025 2.5081 22.0818 3.22501 22.4086 4.01368C22.7354 4.80249 22.9037 5.64797 22.9037 6.50183C22.9037 7.35568 22.7354 8.20116 22.4086 8.98997C22.0818 9.77872 21.6028 10.4953 20.9989 11.0989L19.9376 12.1603L12.1603 19.9076C12.1595 19.9084 12.1587 19.9092 12.1579 19.91C12.1099 19.9579 12.0581 19.9999 12.0037 20.036C11.616 20.293 11.0885 20.2514 10.7461 19.9103C10.7460 19.9102 10.7462 19.9104 10.7461 19.9103C10.7453 19.9095 10.7441 19.9084 10.7434 19.9076L2.96609 12.1603L1.90472 11.0989C1.30089 10.4953 0.821893 9.77872 0.495076 8.98997C0.16823 8.20116 0 7.35568 0 6.50183C0 5.64797 0.16823 4.80249 0.495076 4.01368C0.821862 3.22501 1.30114 2.5081 1.90489 1.90455C2.50844 1.30081 3.22501 0.821861 4.01368 0.495075C4.80249 0.168229 5.64798 0 6.50182 0ZM11.4518 17.7903L18.5247 10.7447L19.5847 9.68472C20.0028 9.26683 20.3346 8.77049 20.5609 8.22439C20.7872 7.67828 20.9037 7.09295 20.9037 6.50183C20.9037 5.9107 20.7872 5.32537 20.5609 4.77926C20.3346 4.23316 20.003 3.73699 19.5849 3.3191C19.167 2.90101 18.6705 2.56902 18.1244 2.34274C17.5783 2.11647 16.993 2 16.4018 2C15.8107 2 15.2254 2.11647 14.6793 2.34274C14.1332 2.56902 13.637 2.90068 13.2191 3.31877L12.1589 4.37893C12.1101 4.42775 12.0575 4.47046 12.0021 4.50707C11.6139 4.76335 11.0864 4.72064 10.7447 4.37893L9.68455 3.31877C9.26666 2.90068 8.77049 2.56902 8.22439 2.34274C7.67829 2.11647 7.09295 2 6.50182 2C5.9107 2 5.32537 2.11647 4.77926 2.34274C4.23316 2.56902 3.73666 2.90101 3.31877 3.3191C2.90068 3.73699 2.56902 4.23316 2.34275 4.77926C2.11647 5.32537 2 5.9107 2 6.50183C2 7.09295 2.11647 7.67828 2.34275 8.22439C2.56902 8.77049 2.90085 9.26683 3.31893 9.68472L4.37893 10.7447L11.4518 17.7903Z" fill="currentColor"/>
</svg>
