<svg width="24" height="24" viewBox="0 0 24 24" fill="none" xmlns="http://www.w3.org/2000/svg">
<path fill-rule="evenodd" clip-rule="evenodd" d="M12.4974 4.00003C11.335 3.99699 10.1884 4.26857 9.15085 4.79263L9.14706 4.79454C7.9014 5.4171 6.85367 6.37416 6.12122 7.55855C5.38877 8.74293 5.00054 10.1078 5 11.5004L4.99999 11.5026C4.99696 12.665 5.26854 13.8116 5.79259 14.8492C5.91281 15.0872 5.933 15.3633 5.84868 15.6163L4.58114 19.4189L8.38377 18.1513C8.63671 18.067 8.91286 18.0872 9.15085 18.2074C10.1884 18.7315 11.335 19.0031 12.4974 19C13.0497 18.9986 13.4986 19.4451 13.5 19.9974C13.5014 20.5497 13.0549 20.9986 12.5026 21C11.1675 21.0035 9.84878 20.722 8.63395 20.1761L3.31622 21.9487C2.95689 22.0685 2.56072 21.975 2.29289 21.7071C2.02506 21.4393 1.93154 21.0431 2.05131 20.6838L3.82389 15.3661C3.27822 14.1516 2.99668 12.8332 3 11.4986C3.00088 9.73502 3.49263 8.00652 4.42021 6.50661C5.34761 5.00699 6.67404 3.79507 8.25104 3.00647C9.56884 2.3412 11.0251 1.99639 12.5013 2.00003H13C13.5523 2.00003 14 2.44774 14 3.00003C14 3.55231 13.5523 4.00003 13 4.00003H12.5L12.4974 4.00003Z" fill="currentColor"/>
<path fill-rule="evenodd" clip-rule="evenodd" d="M20 11.5C20 7.35789 16.6421 4.00003 12.5 4.00003L12.5 2.00003C17.7467 2.00003 22 6.25332 22 11.5C22 16.7467 17.7467 21 12.5 21V19C16.6421 19 20 15.6422 20 11.5Z" fill="currentColor"/>
</svg>
