<svg width="24" height="24" viewBox="0 0 24 24" fill="none" xmlns="http://www.w3.org/2000/svg">
<path fill-rule="evenodd" clip-rule="evenodd" d="M7.05001 1.99817C7.90386 1.99817 8.74934 2.1664 9.53816 2.49324C10.3269 2.82006 11.0437 3.29923 11.6473 3.90305L12 4.25578L12.3527 3.90305C12.9563 3.29923 13.6731 2.82006 14.4619 2.49324C15.2507 2.1664 16.0962 1.99817 16.95 1.99817C17.8039 1.99817 18.6493 2.1664 19.4382 2.49324C20.2268 2.82003 20.9434 3.29897 21.547 3.90272C22.1507 4.50627 22.63 5.22318 22.9568 6.01185C23.2836 6.80066 23.4518 7.64614 23.4518 8.49999C23.4518 9.35384 23.2836 10.1993 22.9568 10.9881C22.6299 11.7769 22.1509 12.4935 21.5471 13.0971L20.4858 14.1585L12.7085 21.9057C12.7077 21.9065 12.7069 21.9073 12.7061 21.9081C12.658 21.956 12.6063 21.9981 12.5519 22.0342C12.1642 22.2912 11.6366 22.2495 11.2943 21.9085C11.2942 21.9084 11.2944 21.9086 11.2943 21.9085C11.2935 21.9077 11.2923 21.9065 11.2915 21.9057L3.51427 14.1585L2.45291 13.0971C1.84908 12.4935 1.37008 11.7769 1.04326 10.9881C0.716417 10.1993 0.548187 9.35384 0.548187 8.49999C0.548187 7.64614 0.716417 6.80066 1.04326 6.01185C1.37005 5.22318 1.84932 4.50627 2.45307 3.90272C3.05662 3.29897 3.7732 2.82003 4.56187 2.49324C5.35068 2.1664 6.19616 1.99817 7.05001 1.99817ZM12 19.7885L19.0729 12.7429L20.1329 11.6829C20.551 11.265 20.8828 10.7687 21.1091 10.2226C21.3354 9.67645 21.4518 9.09112 21.4518 8.49999C21.4518 7.90887 21.3354 7.32353 21.1091 6.77743C20.8828 6.23133 20.5512 5.73516 20.1331 5.31727C19.7152 4.89918 19.2187 4.56719 18.6726 4.34091C18.1265 4.11463 17.5411 3.99817 16.95 3.99817C16.3589 3.99817 15.7736 4.11463 15.2274 4.34091C14.6813 4.56719 14.1852 4.89885 13.7673 5.31694L12.7071 6.3771C12.6583 6.42592 12.6057 6.46863 12.5502 6.50524C12.1621 6.76152 11.6346 6.71881 11.2929 6.3771L10.2327 5.31694C9.81485 4.89885 9.31868 4.56719 8.77258 4.34091C8.22647 4.11463 7.64114 3.99817 7.05001 3.99817C6.45889 3.99817 5.87355 4.11463 5.32745 4.34091C4.78135 4.56719 4.28485 4.89918 3.86695 5.31727C3.44887 5.73516 3.11721 6.23133 2.89093 6.77743C2.66465 7.32353 2.54819 7.90887 2.54819 8.49999C2.54819 9.09112 2.66465 9.67645 2.89093 10.2226C3.11721 10.7687 3.44903 11.265 3.86712 11.6829L4.92712 12.7429L12 19.7885Z" fill="currentColor"/>
</svg>
