<svg width="36" height="36" viewBox="0 0 36 36" fill="none" xmlns="http://www.w3.org/2000/svg">
<rect width="36" height="36" rx="18" fill="#353644"/>
<g clip-path="url(#clip0_194_1480)">
<path fill-rule="evenodd" clip-rule="evenodd" d="M9.56561 11.2322C10.0344 10.7634 10.6703 10.5 11.3334 10.5H17.1667C17.6269 10.5 18 10.8731 18 11.3333C18 11.7936 17.6269 12.1667 17.1667 12.1667H11.3334C11.1124 12.1667 10.9004 12.2545 10.7441 12.4108C10.5878 12.567 10.5 12.779 10.5 13V24.6667C10.5 24.8877 10.5878 25.0996 10.7441 25.2559C10.9004 25.4122 11.1124 25.5 11.3334 25.5H23C23.2211 25.5 23.433 25.4122 23.5893 25.2559C23.7456 25.0996 23.8334 24.8877 23.8334 24.6667V18.8333C23.8334 18.3731 24.2065 18 24.6667 18C25.1269 18 25.5 18.3731 25.5 18.8333V24.6667C25.5 25.3297 25.2366 25.9656 24.7678 26.4344C24.299 26.9033 23.6631 27.1667 23 27.1667H11.3334C10.6703 27.1667 10.0344 26.9033 9.56561 26.4344C9.09677 25.9656 8.83337 25.3297 8.83337 24.6667V13C8.83337 12.337 9.09677 11.7011 9.56561 11.2322Z" fill="#F8F8FC"/>
<path fill-rule="evenodd" clip-rule="evenodd" d="M24.6667 10.3989C24.4189 10.3989 24.1812 10.4974 24.006 10.6726L16.2525 18.426L15.812 20.188L17.574 19.7475L25.3274 11.9941C25.5027 11.8188 25.6011 11.5812 25.6011 11.3333C25.6011 11.0855 25.5027 10.8478 25.3274 10.6726C25.1522 10.4974 24.9145 10.3989 24.6667 10.3989ZM22.8275 9.49408C23.3153 9.00628 23.9769 8.73224 24.6667 8.73224C25.3566 8.73224 26.0182 9.00628 26.506 9.49408C26.9938 9.98188 27.2678 10.6435 27.2678 11.3333C27.2678 12.0232 26.9938 12.6848 26.506 13.1726L18.5893 21.0893C18.4825 21.1961 18.3487 21.2718 18.2022 21.3085L14.8688 22.1418C14.5848 22.2128 14.2844 22.1296 14.0775 21.9226C13.8705 21.7156 13.7873 21.4152 13.8583 21.1312L14.6916 17.7979C14.7282 17.6514 14.804 17.5175 14.9108 17.4108L22.8275 9.49408Z" fill="#F8F8FC"/>
</g>
<defs>
<clipPath id="clip0_194_1480">
<rect width="20" height="20" fill="white" transform="translate(8 8)"/>
</clipPath>
</defs>
</svg>
