<svg width="20" height="20" viewBox="0 0 20 20" fill="none" xmlns="http://www.w3.org/2000/svg">
<path fill-rule="evenodd" clip-rule="evenodd" d="M10.4974 2.00003C9.33505 1.99699 8.18841 2.26857 7.15088 2.79263L7.14709 2.79454C5.90143 3.4171 4.8537 4.37416 4.12125 5.55855C3.3888 6.74293 3.00057 8.10785 3.00003 9.50042L3.00002 9.50264C2.99699 10.665 3.26857 11.8116 3.79263 12.8492C3.91284 13.0872 3.93303 13.3633 3.84871 13.6163L2.58117 17.4189L6.3838 16.1513C6.63674 16.067 6.91289 16.0872 7.15088 16.2074C8.18841 16.7315 9.33505 17.0031 10.4974 17C11.0497 16.9986 11.4986 17.4451 11.5 17.9974C11.5015 18.5497 11.0549 18.9986 10.5026 19C9.16756 19.0035 7.84881 18.722 6.63398 18.1761L1.31625 19.9487C0.95692 20.0685 0.560753 19.975 0.29292 19.7071C0.025088 19.4393 -0.0684344 19.0431 0.0513439 18.6838L1.82392 13.3661C1.27825 12.1516 0.996711 10.8332 1.00003 9.49857C1.00091 7.73502 1.49266 6.00652 2.42024 4.50661C3.34764 3.00699 4.67407 1.79507 6.25107 1.00647C7.56887 0.341222 9.02509 -0.00360966 10.5013 2.84917e-05H11C11.5523 2.84917e-05 12 0.447744 12 1.00003C12 1.55231 11.5523 2.00003 11 2.00003H10.5L10.4974 2.00003Z" fill="currentColor"/>
<path fill-rule="evenodd" clip-rule="evenodd" d="M18 9.50003C18 5.35789 14.6422 2.00003 10.5 2.00003L10.5 2.83718e-05C15.7467 2.83718e-05 20 4.25332 20 9.50003C20 14.7467 15.7467 19 10.5 19V17C14.6422 17 18 13.6422 18 9.50003Z" fill="currentColor"/>
</svg>
